<svg xmlns="http://www.w3.org/2000/svg" viewBox="0 0 273.87 72" data-name="Layer 1"><path fill="#fff" d="M105.82 15.15v19.29c5.5-8.11 11-16.59 17.76-23.81 3.24-3.51 4.6-3.78 9.38-3.78h8.47v.45a320.11 320.11 0 0 0-23.26 28.41c5.77 8.38 11.36 17.76 19.2 24.43a11.6 11.6 0 0 0 4.87 2.53c-1.09 4.41-3 6.22-7.94 6.22a12.31 12.31 0 0 1-8.65-4 212.8 212.8 0 0 1-19.84-27.5v31.22h-4.06c-6 0-8.11-4.14-8.11-8.38V6.85h4c5.92 0 8.18 3.97 8.18 8.3zM155.78 16.49a7.12 7.12 0 0 1-7-7.13 7.08 7.08 0 0 1 14.16 0 7.19 7.19 0 0 1-7.16 7.13zM161.82 48.58V29.29c0-4.33-2.26-8.3-8.2-8.3h-4v39.1c0 4.24 2.16 8.39 8.11 8.39h4.06V48.55zM266.74 16.49a7.12 7.12 0 0 1-7-7.13 7 7 0 0 1 7-7 7.12 7.12 0 0 1 7.13 7 7.2 7.2 0 0 1-7.13 7.13zM260.91 48.58V29.29c0-4.33 2.26-8.3 8.2-8.3h4v39.1c0 4.24-2.17 8.39-8.12 8.39h-4.05V48.55zM36 0c-2 0-4.63 2.83-4.63 8.72S36 18.66 36 18.66s4.63-4 4.63-9.94S38.11 0 36 0zM36 72c2.07 0 4.67-2.83 4.67-8.72S36 53.35 36 53.35s-4.63 4-4.63 9.93S33.89 72 36 72zM72 36c0-2.07-2.83-4.67-8.72-4.67S53.34 36 53.34 36s4 4.63 9.94 4.63S72 38.11 72 36zM0 36c0 2 2.83 4.63 8.72 4.63S18.66 36 18.66 36s-4-4.62-9.94-4.62S0 33.89 0 36zM61.53 61.59c1.46-1.46 1.3-5.31-2.86-9.46s-10.3-3.76-10.3-3.76-.46 6.09 3.75 10.3 7.94 4.38 9.41 2.92zM10.47 10.41c-1.46 1.47-1.3 5.3 2.87 9.46s10.3 3.75 10.3 3.75.45-6.09-3.76-10.3-7.94-4.37-9.41-2.91zM61.59 10.48c-1.47-1.48-5.3-1.31-9.47 2.86s-3.75 10.3-3.75 10.3 6.09.46 10.3-3.75 4.33-7.95 2.92-9.41zM10.41 61.53c1.47 1.46 5.31 1.3 9.46-2.86s3.76-10.3 3.76-10.3-6.09-.45-10.3 3.75-4.38 7.94-2.92 9.41zM253 13.63s1.45-7.19-4.66-7.19h-6.75s-1.49 19.65-11.69 42.88l-10-22s-2.45-6.52-9.28-6.52h-4.72l-11.81 28.52s-7.48-19.26-10.25-35.53c0 0-.85-7.35-7.35-7.35h-6.75s9.63 62.56 25.83 62.78h2.49s5.47-9.46 13.91-29.87c0 0 8.6 20.26 13.51 26.92a7.82 7.82 0 0 0 6.75 2.9h1.85s10.84-14.79 19-55.54"/></svg>