<svg id="Layer_1" data-name="Layer 1" xmlns="http://www.w3.org/2000/svg" viewBox="0 0 300 80"><defs><style>.cls-1{fill:#3a2e2d;}.cls-2{fill:#82bc00;}</style></defs><path class="cls-1" d="M118.89,19.15V38.44c5.5-8.11,11-16.59,17.76-23.81,3.24-3.51,4.6-3.78,9.38-3.78h8.47v.45a317.87,317.87,0,0,0-23.26,28.41c5.77,8.38,11.36,17.76,19.2,24.43a11.5,11.5,0,0,0,4.87,2.53c-1.09,4.41-3,6.22-7.94,6.22a12.29,12.29,0,0,1-8.65-4,211.83,211.83,0,0,1-19.84-27.5V72.61h-4.06c-6,0-8.11-4.14-8.11-8.38V10.85h4C116.62,10.85,118.89,14.82,118.89,19.15Z"/><path class="cls-2" d="M168.85,20.49A7.11,7.11,0,1,1,176,13.36,7.2,7.2,0,0,1,168.85,20.49Z"/><path class="cls-1" d="M174.89,52.58V33.29c0-4.33-2.26-8.3-8.2-8.3h-4v39.1c0,4.24,2.16,8.39,8.11,8.39h4.06V52.55Z"/><path class="cls-2" d="M279.8,20.49a7.13,7.13,0,0,1-7-7.13,7,7,0,0,1,7-7,7.11,7.11,0,0,1,7.13,7A7.19,7.19,0,0,1,279.8,20.49Z"/><path class="cls-1" d="M274,52.58V33.29c0-4.33,2.26-8.3,8.2-8.3h4v39.1c0,4.24-2.17,8.39-8.12,8.39H274V52.55Z"/><path class="cls-2" d="M49.07,4c-2,0-4.63,2.83-4.63,8.72s4.63,9.94,4.63,9.94,4.63-4,4.63-9.94S51.18,4,49.07,4Z"/><path class="cls-2" d="M49.07,76c2.07,0,4.67-2.83,4.67-8.72s-4.67-9.93-4.67-9.93-4.63,4-4.63,9.93S47,76,49.07,76Z"/><path class="cls-2" d="M85.07,40c0-2.07-2.83-4.67-8.72-4.67S66.41,40,66.41,40s4,4.63,9.94,4.63S85.07,42.11,85.07,40Z"/><path class="cls-2" d="M13.07,40c0,2,2.83,4.63,8.72,4.63S31.73,40,31.73,40s-4-4.62-9.94-4.62S13.07,37.89,13.07,40Z"/><path class="cls-2" d="M74.6,65.59c1.46-1.46,1.3-5.31-2.86-9.46s-10.3-3.76-10.3-3.76-.46,6.09,3.75,10.3S73.12,67.05,74.6,65.59Z"/><path class="cls-2" d="M23.54,14.41c-1.46,1.47-1.3,5.3,2.87,9.46s10.3,3.75,10.3,3.75.45-6.09-3.76-10.3S25,13,23.54,14.41Z"/><path class="cls-2" d="M74.66,14.48c-1.47-1.48-5.3-1.31-9.47,2.86s-3.75,10.3-3.75,10.3,6.09.46,10.3-3.75S76.07,15.94,74.66,14.48Z"/><path class="cls-2" d="M23.48,65.53c1.47,1.46,5.31,1.3,9.46-2.86s3.76-10.3,3.76-10.3-6.09-.45-10.3,3.75S22,64.06,23.48,65.53Z"/><path class="cls-1" d="M266.07,17.63s1.44-7.19-4.67-7.19h-6.75S253.17,30.09,243,53.32l-10-22s-2.45-6.52-9.28-6.52H219L207.15,53.32s-7.47-19.26-10.25-35.53c0,0-.85-7.35-7.35-7.35H182.8S192.43,73,208.64,73.22h2.49S216.6,63.76,225,43.35c0,0,8.6,20.26,13.51,26.92a7.79,7.79,0,0,0,6.75,2.9h1.85s10.84-14.79,19-55.54"/></svg>