<svg xmlns="http://www.w3.org/2000/svg" viewBox="0 0 150 167.16"><defs><style>.cls-1{fill:#02a197;}.cls-2{fill:#8cbe23;}.cls-3{fill:#fff;}.cls-4{fill:#e6f2f1;}</style></defs><g id="Layer_2" data-name="Layer 2"><g id="Layer_1-2" data-name="Layer 1"><path class="cls-1" d="M5.34,34.72A5.34,5.34,0,1,0,0,29.39a5.33,5.33,0,0,0,5.34,5.33"/><path class="cls-1" d="M89.91,0c-.76,0-1.52,0-2.27.05V0H25.28A5.4,5.4,0,0,0,19.9,5.42a5.33,5.33,0,0,0,5.38,5.34H39a6.64,6.64,0,0,1,6.34,6.64,6.57,6.57,0,0,1-1.15,3.74c-.28.33-.56.66-.83,1A6.64,6.64,0,0,1,39.71,24H19.92a5.42,5.42,0,0,0,0,10.84h7.19a5.51,5.51,0,0,1,.66,11H6v0a4.71,4.71,0,0,0-.53,0,5.42,5.42,0,0,0,0,10.84,4.71,4.71,0,0,0,.53,0v0h24c-.07,1.14-.1,2.3-.1,3.46A60.09,60.09,0,1,0,89.91,0M89.5,109.35A49.27,49.27,0,0,1,47.6,34.17l.61-1A49.27,49.27,0,1,1,89.5,109.35"/><path class="cls-2" d="M136.17,21.75l-8.69,7A49.26,49.26,0,1,1,50.62,90.33l-8.21,6.55a60.08,60.08,0,1,0,93.76-75.13"/><path class="cls-3" d="M100.6,35.17l1-4.69a1.32,1.32,0,0,0-1.54-1.58L89.45,31a1.33,1.33,0,0,0-1,1l-1,4.33C79.08,39,73.22,45.08,73.22,52.22c0,5.33,3.26,10.1,8.39,13.27l31.72-25.43a27,27,0,0,0-12.73-4.89"/><path class="cls-4" d="M111,67.94c0-6.81-5.33-12.7-13.08-15.52L67.46,76.84A22.21,22.21,0,0,0,77,83.39l-1.45,6.5a1.32,1.32,0,0,0,1.53,1.59l10.65-1.93a1.33,1.33,0,0,0,1.05-1l.74-3.35C101.56,84.44,111,77,111,67.94"/><path class="cls-1" d="M62.28,156.29A10.88,10.88,0,1,1,51.4,145.41a10.88,10.88,0,0,1,10.88,10.88"/><path class="cls-3" d="M101.4,156.29a10.88,10.88,0,1,1-10.87-10.88,10.87,10.87,0,0,1,10.87,10.88"/><path class="cls-2" d="M140.53,156.29a10.88,10.88,0,1,1-10.88-10.88,10.88,10.88,0,0,1,10.88,10.88"/></g></g></svg>