<svg id="Layer_1" data-name="Layer 1" xmlns="http://www.w3.org/2000/svg" viewBox="0 0 400 400"><defs><style>.cls-1{fill:#02a197;}.cls-2{fill:#8cbe23;}.cls-3{fill:#074757;}.cls-4{fill:#041e26;}</style></defs><path class="cls-1" d="M11,171.25a6,6,0,1,0-6-6.05,6.05,6.05,0,0,0,6,6.05"/><path class="cls-1" d="M106.83,131.89c-.87,0-1.72,0-2.58.06v0H33.57a6.12,6.12,0,0,0-6.1,6.14,6,6,0,0,0,6.1,6.05H49.08A7.54,7.54,0,0,1,55,155.86c-.32.37-.63.74-.94,1.12a7.54,7.54,0,0,1-4.1,2.08H27.49a6.14,6.14,0,1,0,0,12.28h8.16a6.25,6.25,0,0,1,.74,12.45H11.66v0l-.6,0a6.14,6.14,0,1,0,0,12.28l.6,0v0H38.84c-.08,1.3-.12,2.6-.12,3.92a68.11,68.11,0,1,0,68.11-68.11m-.47,123.94a55.83,55.83,0,0,1-47.49-85.2l.69-1.09a55.84,55.84,0,1,1,46.8,86.29"/><path class="cls-2" d="M159.26,156.55l-9.85,7.89a55.83,55.83,0,1,1-87.12,69.84L53,241.7a68.1,68.1,0,1,0,106.27-85.15"/><path class="cls-3" d="M118.94,171.76l1.18-5.32a1.5,1.5,0,0,0-1.75-1.79L106.3,167a1.49,1.49,0,0,0-1.17,1.14L104,173.05c-9.49,3-16.14,9.94-16.14,18,0,6,3.7,11.44,9.52,15l36-28.82a30.55,30.55,0,0,0-14.43-5.54"/><path class="cls-4" d="M130.73,208.9c0-7.72-6-14.4-14.83-17.59L81.38,219a25.09,25.09,0,0,0,10.82,7.42l-1.64,7.37a1.5,1.5,0,0,0,1.74,1.8l12.06-2.19a1.51,1.51,0,0,0,1.2-1.15l.84-3.8c13.63-.83,24.33-9.26,24.33-19.54"/><path class="cls-3" d="M236.35,181.28a15.78,15.78,0,0,0-5.65-7.08q-3.67-2.47-9.76-2.48a30.66,30.66,0,0,0-10.44,1.74,21.14,21.14,0,0,0-8.09,5,15.13,15.13,0,0,0-4.16,7.82q-1.31,6.44,2.86,10.72t12.77,5.13q6.24.65,8.78,3.51a7.58,7.58,0,0,1,1.72,6.9,9.83,9.83,0,0,1-5,6.69,18.55,18.55,0,0,1-9.49,2.44,15.73,15.73,0,0,1-7.89-1.91c-2.25-1.28-3.61-2.83-4.09-4.67a3.05,3.05,0,0,0-1.16-1.81,3.25,3.25,0,0,0-2-.67,2.53,2.53,0,0,0-.72.07,5,5,0,0,0-2.35,1.1,3.26,3.26,0,0,0-1.15,1.87,3.36,3.36,0,0,0,.07,1.42,12.67,12.67,0,0,0,6.11,8.14,21.92,21.92,0,0,0,11.86,3.11,29.46,29.46,0,0,0,10.17-1.8,22,22,0,0,0,8.42-5.45,17.29,17.29,0,0,0,4.53-8.75q1.41-7-2.4-11.29t-12.13-5.13q-7.49-.77-10-3.25a6.39,6.39,0,0,1-1.73-6.16,8.63,8.63,0,0,1,4.54-6.05,18.53,18.53,0,0,1,9.13-2.09A12.5,12.5,0,0,1,226,180a10.08,10.08,0,0,1,3.8,4.85,2.74,2.74,0,0,0,1.12,1.45,3.31,3.31,0,0,0,1.88.53,3.94,3.94,0,0,0,3.87-3,4.24,4.24,0,0,0-.34-2.55"/><path class="cls-3" d="M247.11,189.92a4.28,4.28,0,0,0-2.78,1,4.35,4.35,0,0,0-1.56,2.62L236.43,225a3,3,0,0,0,.5,2.58,2.86,2.86,0,0,0,2.38,1,4.18,4.18,0,0,0,2.82-1,4.42,4.42,0,0,0,1.51-2.58l6.35-31.5a3,3,0,0,0-.46-2.62,2.91,2.91,0,0,0-2.42-1"/><path class="cls-3" d="M258.38,172.75a2.4,2.4,0,0,0-2-.9,3.65,3.65,0,0,0-2.36.9l-7.12,5.94a3.68,3.68,0,0,0-1.15,2.05,2.64,2.64,0,0,0,.41,2.21,2.4,2.4,0,0,0,2.06.88,3.46,3.46,0,0,0,2.29-.85l7-5.87a3.46,3.46,0,0,0,1.28-2.12,2.67,2.67,0,0,0-.43-2.24"/><path class="cls-4" d="M257.14,227.19a3.14,3.14,0,0,1-.55-2.69l9.91-49.16a4.68,4.68,0,0,1,4.54-3.78,3,3,0,0,1,2.51,1.05,3.16,3.16,0,0,1,.5,2.73l-4.2,20.84h33.7l4.2-20.84a4.54,4.54,0,0,1,1.64-2.73,4.48,4.48,0,0,1,2.9-1.05,3,3,0,0,1,2.44,1.05,3.2,3.2,0,0,1,.5,2.73l-9.91,49.16a4.58,4.58,0,0,1-1.6,2.72,4.32,4.32,0,0,1-2.86,1.06,3,3,0,0,1-2.47-1.09,3.14,3.14,0,0,1-.55-2.69l4.36-21.64H268.51l-4.36,21.64a4.7,4.7,0,0,1-1.6,2.69,4.42,4.42,0,0,1-2.94,1.09,3,3,0,0,1-2.47-1.09"/><path class="cls-4" d="M346.69,190.91a14.62,14.62,0,0,1,5.73,7.27,18.54,18.54,0,0,1,.58,10.27l-3.27,16.2a4.51,4.51,0,0,1-1.58,2.65,4.38,4.38,0,0,1-2.87,1,2.93,2.93,0,0,1-2.43-1,3,3,0,0,1-.52-2.65l.54-2.69a23.73,23.73,0,0,1-7.15,4.86,20.15,20.15,0,0,1-8.2,1.75,15.13,15.13,0,0,1-8.95-2.62,13.74,13.74,0,0,1-5.22-7.22,20,20,0,0,1-.37-10.28,24.6,24.6,0,0,1,4.69-10.27,25.62,25.62,0,0,1,8.69-7.27,23.24,23.24,0,0,1,10.74-2.65,17,17,0,0,1,9.59,2.65m-9.47,29.34a16.89,16.89,0,0,0,5.59-4.86,17.2,17.2,0,0,0,3.07-6.94,13.42,13.42,0,0,0-.26-7,9.4,9.4,0,0,0-3.63-4.9,10.64,10.64,0,0,0-6.21-1.78,14.36,14.36,0,0,0-6.93,1.78,17.47,17.47,0,0,0-8.75,11.87,13,13,0,0,0,.31,6.94,9.54,9.54,0,0,0,3.67,4.86,10.64,10.64,0,0,0,6.21,1.78,14.36,14.36,0,0,0,6.93-1.78"/><path class="cls-4" d="M394.85,191.75a5.48,5.48,0,0,1-.78,1.74l-32.3,50a3.83,3.83,0,0,1-3.28,2.26,4,4,0,0,1-1.66-.44,2.4,2.4,0,0,1-1.6-2.83,4.62,4.62,0,0,1,.78-1.74l10.56-16.34-10.09-31a2.78,2.78,0,0,1-.06-1.53,3.62,3.62,0,0,1,.93-1.74,5.19,5.19,0,0,1,1.78-1.24,4,4,0,0,1,1.51-.29,2.56,2.56,0,0,1,2.64,2l8,26.43,17-26.36a3.9,3.9,0,0,1,3.25-2.11,3.57,3.57,0,0,1,1.67.37,2.34,2.34,0,0,1,1.68,2.83"/><path class="cls-1" d="M171.75,302a10.88,10.88,0,1,1-10.87-10.88A10.88,10.88,0,0,1,171.75,302"/><path class="cls-4" d="M210.88,302A10.88,10.88,0,1,1,200,291.12,10.88,10.88,0,0,1,210.88,302"/><path class="cls-2" d="M250,302a10.88,10.88,0,1,1-10.88-10.88A10.88,10.88,0,0,1,250,302"/></svg>