<svg version="1" xmlns="http://www.w3.org/2000/svg" viewBox="0 0 1000 1000"><path d="M843 152A486 486 0 0 0 79 738L10 990l257-68c71 39 151 59 232 59h1a486 486 0 0 0 343-829zM500 899h-1c-72 0-143-19-205-56l-15-9-152 40 40-149-9-15A402 402 0 0 1 500 92a401 401 0 0 1 403 404c0 222-181 403-403 403zm221-302c-12-6-72-35-83-39s-19-6-27 6-32 39-39 47-14 9-26 3-51-19-98-60c-36-32-60-72-67-84s-1-19 5-25c6-5 12-14 18-21 7-7 9-12 13-20s2-15-1-21l-38-91c-10-23-20-20-27-20l-23-1c-8 0-22 3-33 15s-42 42-42 102c0 59 43 117 49 125s86 131 208 183c28 13 51 20 69 26 29 9 55 8 76 5 23-4 72-30 82-58s10-53 7-58-11-8-23-14z" fill-rule="evenodd" clip-rule="evenodd"/></svg>